# xmcd
#
# Track frame offsets:
#	183
#	12533
#	24120
#	35838
#	47833
#	58488
#	71465
#	84990
#	95183
#	107803
#	121360
#	134363
#	148068
#	159290
#
# Disc length: 2292 seconds
#
# Revision: 1
# Processed by: cddbd v1.4PL0 Copyright (c) Steve Scherf et al.
# Submitted via: audiograbber 1.81.01
#
DISCID=c708f20e
DTITLE=Carl Perkins - The Country Store Collection
DYEAR=1900
DGENRE=Country
TTITLE0=Ruby
TTITLE1=You Tore My Haven
TTITLE2=Love Sweet Love
TTITLE3=One More Loser Going Home
TTITLE4=Just As Long
TTITLE5=Never Lock Back
TTITLE6=Lets Get Dixie Fried
TTITLE7=Honky TonK Song
TTITLE8=Lord I Sinned Again Last Night
TTITLE9=Goin' To Memphis
TTITLE10=Help Me Dream
TTITLE11=Sunday Dinner
TTITLE12=Sing My Song
TTITLE13=Big Bad Blues
EXTD=
EXTT0=
EXTT1=
EXTT2=
EXTT3=
EXTT4=
EXTT5=
EXTT6=
EXTT7=
EXTT8=
EXTT9=
EXTT10=
EXTT11=
EXTT12=
EXTT13=
PLAYORDER=
